<svg xmlns="http://www.w3.org/2000/svg" version="1.2" width="549.05" height="113.8" viewBox="7.36 0 82.66 17.13">
    <style></style>
    <path stroke-linejoin="round" stroke-linecap="round" stroke-width=".1" stroke="currentColor"
        d="M8.59 6.9h81.44M8.59 5.9h81.44M8.59 4.9h81.44M8.59 3.9h81.44M8.59 2.9h81.44" />
    <rect x="86.05" y="-.1" width="1.96" height=".2" ry=".1" fill="currentColor" transform="translate(0 7.9)" />
    <rect x="86.05" y="-.1" width="1.96" height=".2" ry=".1" fill="currentColor" transform="translate(0 8.9)" />
    <rect x="86.05" y="-.1" width="1.96" height=".2" ry=".1" fill="currentColor" transform="translate(0 9.9)" />
    <rect x="83.54" y="-.1" width="1.96" height=".2" ry=".1" fill="currentColor" transform="translate(0 7.9)" />
    <rect x="83.54" y="-.1" width="1.96" height=".2" ry=".1" fill="currentColor" transform="translate(0 8.9)" />
    <rect x="81.04" y="-.1" width="1.96" height=".2" ry=".1" fill="currentColor" transform="translate(0 7.9)" />
    <rect x="81.04" y="-.1" width="1.96" height=".2" ry=".1" fill="currentColor" transform="translate(0 8.9)" />
    <rect x="78.54" y="-.1" width="1.96" height=".2" ry=".1" fill="currentColor" transform="translate(0 7.9)" />
    <rect x="76.03" y="-.1" width="1.96" height=".2" ry=".1" fill="currentColor" transform="translate(0 7.9)" />
    <rect x="25.96" y="-.1" width="1.96" height=".2" ry=".1" fill="currentColor" transform="translate(0 7.9)" />
    <rect x="23.44" y="-.1" width="1.96" height=".2" ry=".1" fill="currentColor" transform="translate(0 7.9)" />
    <rect x="20.94" y="-.1" width="1.96" height=".2" ry=".1" fill="currentColor" transform="translate(0 7.9)" />
    <rect x="20.94" y="-.1" width="1.96" height=".2" ry=".1" fill="currentColor" transform="translate(0 8.9)" />
    <rect x="18.43" y="-.1" width="1.96" height=".2" ry=".1" fill="currentColor" transform="translate(0 7.9)" />
    <rect x="18.43" y="-.1" width="1.96" height=".2" ry=".1" fill="currentColor" transform="translate(0 8.9)" />
    <rect x="15.93" y="-.1" width="1.96" height=".2" ry=".1" fill="currentColor" transform="translate(0 7.9)" />
    <rect x="15.93" y="-.1" width="1.96" height=".2" ry=".1" fill="currentColor" transform="translate(0 8.9)" />
    <rect x="15.93" y="-.1" width="1.96" height=".2" ry=".1" fill="currentColor" transform="translate(0 9.9)" />
    <rect x="58.52" y="-.1" width="1.96" height=".2" ry=".1" fill="currentColor" transform="translate(0 10.9)" />
    <rect x="56.02" y="-.1" width="1.96" height=".2" ry=".1" fill="currentColor" transform="translate(0 10.9)" />
    <rect x="53.51" y="-.1" width="1.96" height=".2" ry=".1" fill="currentColor" transform="translate(0 9.9)" />
    <rect x="53.51" y="-.1" width="1.96" height=".2" ry=".1" fill="currentColor" transform="translate(0 10.9)" />
    <rect x="51.01" y="-.1" width="1.96" height=".2" ry=".1" fill="currentColor" transform="translate(0 9.9)" />
    <rect x="51.01" y="-.1" width="1.96" height=".2" ry=".1" fill="currentColor" transform="translate(0 10.9)" />
    <rect x="48.5" y="-.1" width="1.96" height=".2" ry=".1" fill="currentColor" transform="translate(0 9.9)" />
    <rect x="48.5" y="-.1" width="1.96" height=".2" ry=".1" fill="currentColor" transform="translate(0 10.9)" />
    <rect x="46" y="-.1" width="1.96" height=".2" ry=".1" fill="currentColor" transform="translate(0 10.9)" />
    <rect x="43.49" y="-.1" width="1.96" height=".2" ry=".1" fill="currentColor" transform="translate(0 10.9)" />
    <path stroke-linejoin="round" stroke-linecap="round" stroke-width=".1" stroke="currentColor"
        d="M8.59 15.9h81.44M8.59 14.9h81.44M8.59 13.9h81.44M8.59 12.9h81.44M8.59 11.9h81.44" />
    <rect x="-.07" y="-2.31" width=".13" height="2.92" ry=".04" fill="currentColor" transform="translate(61.41 13.9)" />
    <path
        d="M64.73 4.85c.22 0 .43.11.43.36 0 .28-.22.48-.41.6a.9.9 0 0 1-.46.13c-.22 0-.44-.11-.44-.36 0-.28.22-.48.41-.6a.9.9 0 0 1 .47-.13zM64.73 11.35c.22 0 .43.11.43.36 0 .28-.22.48-.41.6a.9.9 0 0 1-.46.13c-.22 0-.44-.11-.44-.36 0-.28.22-.48.41-.6a.9.9 0 0 1 .47-.13z"
        fill="currentColor" />
    <rect x="-.07" y=".69" width=".13" height="2.31" ry=".04" fill="currentColor" transform="translate(63.92 4.9)" />
    <rect x="-.07" y=".19" width=".13" height="2.54" ry=".04" fill="currentColor" transform="translate(61.41 4.9)" />
    <path
        d="M62.22 10.85c.22 0 .43.11.43.36 0 .28-.22.48-.4.6a.9.9 0 0 1-.47.13c-.22 0-.43-.11-.43-.36 0-.28.22-.48.4-.6a.9.9 0 0 1 .47-.13zM61.95 1.3c-.07 0-.15.03-.15.1 0 .03.06.04.06.08 0 .07-.05.12-.1.12s-.12-.05-.12-.12c0-.14.15-.24.31-.24.2 0 .38.07.38.25 0 .1-.01.17-.09.2-.02.02-.04.04-.04.07s.02.05.04.06c.09.04.13.11.13.21 0 .21-.18.31-.4.31-.19 0-.36-.1-.36-.26a.13.13 0 0 1 .25 0c0 .05-.07.06-.07.1 0 .08.09.1.17.1.1 0 .12-.13.12-.25v-.08c0-.09 0-.15-.09-.15h-.16c-.03 0-.04-.02-.04-.04s.01-.04.04-.04h.16c.09 0 .1-.07.1-.16v-.07c0-.1-.04-.18-.14-.18zM62.22 4.35c.22 0 .43.11.43.36 0 .28-.22.48-.4.6a.9.9 0 0 1-.47.13c-.22 0-.43-.11-.43-.36 0-.28.22-.48.4-.6a.9.9 0 0 1 .47-.13z"
        fill="currentColor" />
    <rect x="-.07" y="-2.81" width=".13" height="3.21" ry=".04" fill="currentColor" transform="translate(58.91 13.9)" />
    <path
        d="M51.96 1.22c.05-.03.1-.06.14-.11l.06-.11c0-.02.02-.02.03-.02.02 0 .03.01.03.04v.47h.18c.02 0 .04.02.04.04s-.02.04-.04.04h-.18c0 .12.08.22.18.22.02 0 .03.01.03.03s0 .03-.03.03c-.1 0-.21-.03-.32-.03s-.21.03-.32.03c-.02 0-.03-.02-.03-.03s0-.03.03-.03c.1 0 .17-.1.18-.22h-.34c-.06 0-.08-.03-.08-.06V1.5c.18-.19.27-.44.27-.7 0-.02.02-.04.04-.04h.01c.06.01.11.03.17.03s.11-.02.17-.03h.01c.02 0 .04.01.04.03v.01l-.63.7h.34v-.2c0-.03 0-.05.02-.07z"
        fill="currentColor" />
    <rect x="-.07" y="-.81" width=".13" height="3.09" ry=".04" fill="currentColor" transform="translate(68.92 13.9)" />
    <rect x="-.07" y="-1.54" width=".13" height="2.85" ry=".04" fill="currentColor" transform="translate(70.1 4.9)" />
    <path
        d="M69.73 12.35c.22 0 .43.11.43.36 0 .28-.22.48-.41.6a.9.9 0 0 1-.46.13c-.22 0-.44-.11-.44-.36 0-.28.22-.48.41-.6a.9.9 0 0 1 .47-.13zM69.48 1.72c.05-.03.1-.06.14-.12.03-.03.04-.07.06-.11l.03-.02c.02 0 .03.02.03.04V2h.18c.02 0 .04.02.04.04s-.02.04-.04.04h-.18c0 .11.08.21.18.21.02 0 .03.02.03.03s0 .03-.03.03c-.1 0-.21-.03-.32-.03s-.21.03-.32.03c-.02 0-.03-.01-.03-.03s0-.03.03-.03c.1 0 .17-.1.18-.21h-.34c-.06 0-.08-.04-.08-.06v-.02c.18-.2.28-.44.28-.7 0-.03.01-.05.03-.05h.01c.06.02.11.03.17.03s.11-.01.17-.03h.01c.02 0 .04.02.04.03v.02l-.63.7h.34v-.21c0-.02 0-.05.02-.06zM69.73 5.85c.22 0 .43.11.43.36 0 .28-.22.48-.41.6a.9.9 0 0 1-.46.13c-.22 0-.44-.11-.44-.36 0-.28.22-.48.41-.6a.9.9 0 0 1 .47-.13z"
        fill="currentColor" />
    <rect x="-.07" y="-1.81" width=".13" height="2.62" ry=".04" fill="currentColor" transform="translate(63.92 13.9)" />
    <rect x="-.07" y="-1.31" width=".13" height="3.32" ry=".04" fill="currentColor" transform="translate(66.41 13.9)" />
    <rect x="-.07" y="-1.8" width=".13" height="2.62" ry=".04" fill="currentColor" transform="translate(67.59 4.9)" />
    <path
        d="M67.22 11.85c.22 0 .43.11.43.36 0 .28-.22.48-.4.6a.9.9 0 0 1-.47.13c-.22 0-.43-.11-.43-.36 0-.28.22-.48.4-.6a.9.9 0 0 1 .47-.13zM66.9 2.06h.28c0 .11.07.22.18.22.02 0 .03.02.03.03s-.01.03-.03.03c-.11 0-.22-.03-.32-.03s-.22.03-.32.03c-.03 0-.04-.01-.04-.03s.01-.03.04-.03c.1 0 .17-.1.17-.22zm-.3-.27.3-.55h.04c.03.02.06.03.1.03s.06-.01.1-.03c.02 0 .04.02.04.05v.77h-.29v-.47c0-.04-.02-.05-.04-.05l-.03.01-.14.28c-.01.02-.02.02-.03.02-.02 0-.05-.01-.05-.04V1.8zM67.22 5.35c.22 0 .43.11.43.36 0 .28-.22.48-.4.6a.9.9 0 0 1-.47.13c-.22 0-.43-.11-.43-.36 0-.28.22-.48.4-.6a.9.9 0 0 1 .47-.13zM54.7 9.35c.23 0 .44.11.44.36 0 .28-.22.48-.4.6a.9.9 0 0 1-.47.13c-.22 0-.43-.11-.43-.36 0-.28.22-.48.4-.6a.9.9 0 0 1 .47-.13z"
        fill="currentColor" />
    <rect x="-.07" y="-.81" width=".13" height="3.01" ry=".04" fill="currentColor" transform="translate(56.4 4.9)" />
    <path
        d="M57.21 9.85c.22 0 .44.11.44.36 0 .28-.22.48-.41.6a.9.9 0 0 1-.47.13c-.22 0-.43-.11-.43-.36 0-.28.22-.48.41-.6a.9.9 0 0 1 .46-.13zM57.21 3.35c.22 0 .44.11.44.36 0 .28-.22.48-.41.6a.9.9 0 0 1-.47.13c-.22 0-.43-.11-.43-.36 0-.28.22-.48.41-.6a.9.9 0 0 1 .46-.13z"
        fill="currentColor" />
    <rect x="-.07" y="-3.81" width=".13" height="3.81" ry=".04" fill="currentColor" transform="translate(53.9 13.9)" />
    <rect x="-.07" y="-1.31" width=".13" height="3.13" ry=".04" fill="currentColor" transform="translate(53.9 4.9)" />
    <path
        d="M54.7 2.85c.23 0 .44.11.44.36 0 .28-.22.48-.4.6a.9.9 0 0 1-.47.13c-.22 0-.43-.11-.43-.36 0-.28.22-.48.4-.6a.9.9 0 0 1 .47-.13z"
        fill="currentColor" />
    <rect x="-.07" y="-4.31" width=".13" height="4.31" ry=".04" fill="currentColor" transform="translate(51.4 13.9)" />
    <rect x="-.07" y="-1.81" width=".13" height="3.75" ry=".04" fill="currentColor" transform="translate(51.4 4.9)" />
    <path
        d="M52.2 8.85c.23 0 .44.11.44.36 0 .28-.22.48-.41.6a.9.9 0 0 1-.46.13c-.22 0-.44-.11-.44-.36 0-.28.22-.48.41-.6a.9.9 0 0 1 .47-.13z"
        fill="currentColor" />
    <path stroke-linejoin="round" stroke-linecap="round" stroke-width=".08" fill="currentColor" stroke="currentColor"
        d="M25.03 4.7v.4h-7.56v-.4z" />
    <rect x="-.07" y="-.31" width=".13" height="2.78" ry=".04" fill="currentColor" transform="translate(58.91 4.9)" />
    <path
        d="M59.72 10.35c.22 0 .43.11.43.36 0 .28-.22.48-.4.6a.9.9 0 0 1-.47.13c-.22 0-.43-.11-.43-.36 0-.28.22-.48.4-.6a.9.9 0 0 1 .47-.13zM59.39 2.06h.29c0 .11.07.22.17.22.03 0 .03.02.03.03s0 .03-.03.03c-.1 0-.21-.03-.32-.03s-.2.03-.32.03c-.02 0-.03-.01-.03-.03s.01-.03.03-.03c.11 0 .18-.1.18-.22zm-.28-.27.28-.55h.05c.03.02.06.03.1.03s.06-.01.1-.03c.02 0 .04.02.04.05v.77h-.3v-.47c0-.04-.02-.05-.03-.05l-.03.01-.14.28c-.01.02-.02.02-.04.02s-.04-.01-.04-.04V1.8zM59.72 3.85c.22 0 .43.11.43.36 0 .28-.22.48-.4.6a.9.9 0 0 1-.47.13c-.22 0-.43-.11-.43-.36 0-.28.22-.48.4-.6a.9.9 0 0 1 .47-.13z"
        fill="currentColor" />
    <rect x="-.07" y="-3.31" width=".13" height="3.51" ry=".04" fill="currentColor" transform="translate(56.4 13.9)" />
    <rect x="-.07" width=".13" height="4.32" ry=".04" fill="currentColor" transform="translate(85.1 4.9)" />
    <path
        d="M84.74 15.35c.22 0 .43.11.43.36 0 .28-.22.48-.4.6a.9.9 0 0 1-.47.13c-.22 0-.43-.11-.43-.36 0-.28.22-.48.4-.6a.9.9 0 0 1 .47-.13zM84.74 8.85c.22 0 .43.11.43.36 0 .28-.22.48-.4.6a.9.9 0 0 1-.47.13c-.22 0-.43-.11-.43-.36 0-.28.22-.48.4-.6a.9.9 0 0 1 .47-.13z"
        fill="currentColor" />
    <rect x="-.07" y="-1.53" width=".13" height="2.84" ry=".04" fill="currentColor" transform="translate(82.6 13.9)" />
    <rect x="-.07" y="-1.2" width=".13" height="3.01" ry=".04" fill="currentColor" transform="translate(85.1 13.9)" />
    <rect x="-.07" y="-.06" width=".13" height="3.88" ry=".04" fill="currentColor" transform="translate(82.6 4.9)" />
    <path
        d="M82.24 14.85c.22 0 .43.11.43.36 0 .28-.22.48-.4.6a.9.9 0 0 1-.47.13c-.22 0-.43-.11-.43-.36 0-.28.22-.48.4-.6a.9.9 0 0 1 .47-.13zM82.24 8.35c.22 0 .43.11.43.36 0 .28-.22.48-.4.6a.9.9 0 0 1-.47.13c-.22 0-.43-.11-.43-.36 0-.28.22-.48.4-.6a.9.9 0 0 1 .47-.13z"
        fill="currentColor" />
    <rect x="-.07" y="-1.85" width=".13" height="2.67" ry=".04" fill="currentColor" transform="translate(80.1 13.9)" />
    <path stroke-linejoin="round" stroke-linecap="round" stroke-width=".08" fill="currentColor" stroke="currentColor"
        d="M25.03 11.88v.4l-7.56.81v-.4zM35.06 3.5v.4l-7.56 1v-.4zM33.88 15.88v.4l-7.56.81v-.4zM45.07 1.7v.4l-7.56.8v-.4zM43.9 13.88v.4l-7.56 1v-.4zM53.92 6.5v.4l-7.56.38v-.4zM53.92 13.7v.4h-7.56v-.4zM63.94 7.7v.4l-7.56-.82v-.4zM63.94 14.5v.4l-7.56-.62v-.4zM75.12 3.7v.4l-7.56-.82v-.4zM73.95 16.5v.4l-7.56-.8v-.4zM85.13 4.7v.4l-7.56-.2v-.4zM85.13 12.5v.4l-7.56-1v-.4z" />
    <rect x="-.07" y="-.13" width=".13" height="3.44" ry=".04" fill="currentColor" transform="translate(80.1 4.9)" />
    <rect x="-.07" y="-1" width=".13" height="3.31" ry=".04" fill="currentColor" transform="translate(87.61 13.9)" />
    <rect x="-.07" width=".13" height="4.81" ry=".04" fill="currentColor" transform="translate(87.61 4.9)" />
    <path
        d="M87.25 15.85c.22 0 .43.11.43.36 0 .28-.22.48-.41.6a.9.9 0 0 1-.46.13c-.22 0-.44-.11-.44-.36 0-.28.22-.48.41-.6a.9.9 0 0 1 .47-.13zM86.92 2.06h.28c0 .11.07.22.18.22.02 0 .03.02.03.03s0 .03-.03.03c-.1 0-.21-.03-.32-.03s-.21.03-.32.03c-.02 0-.03-.01-.03-.03s0-.03.03-.03c.1 0 .18-.1.18-.22zm-.29-.27.29-.55h.04c.03.02.06.03.1.03s.07-.01.1-.03c.03 0 .04.02.04.05v.77h-.28v-.47c0-.04-.03-.05-.05-.05l-.02.01-.15.28c0 .02-.02.02-.03.02-.02 0-.04-.01-.04-.04V1.8zM87.25 9.35c.22 0 .43.11.43.36 0 .28-.22.48-.41.6a.9.9 0 0 1-.46.13c-.22 0-.44-.11-.44-.36 0-.28.22-.48.41-.6a.9.9 0 0 1 .47-.13zM74.73 6.85c.22 0 .44.11.44.36 0 .28-.22.48-.41.6a.9.9 0 0 1-.47.13c-.22 0-.43-.11-.43-.36 0-.28.22-.48.41-.6a.9.9 0 0 1 .46-.13zM77.23 13.85c.22 0 .43.11.43.36 0 .28-.22.48-.4.6a.9.9 0 0 1-.47.13c-.22 0-.43-.11-.43-.36 0-.28.22-.48.4-.6a.9.9 0 0 1 .47-.13zM77.23 7.35c.22 0 .43.11.43.36 0 .28-.22.48-.4.6a.9.9 0 0 1-.47.13c-.22 0-.43-.11-.43-.36 0-.28.22-.48.4-.6a.9.9 0 0 1 .47-.13z"
        fill="currentColor" />
    <rect x="-.07" y=".19" width=".13" height="2.62" ry=".04" fill="currentColor" transform="translate(73.93 13.9)" />
    <rect x="-.07" y="-1.01" width=".13" height="3.32" ry=".04" fill="currentColor" transform="translate(75.1 4.9)" />
    <path
        d="M74.73 13.35c.22 0 .44.11.44.36 0 .28-.22.48-.41.6a.9.9 0 0 1-.47.13c-.22 0-.43-.11-.43-.36 0-.28.22-.48.41-.6a.9.9 0 0 1 .46-.13z"
        fill="currentColor" />
    <rect x="-.07" y="-.19" width=".13" height="3" ry=".04" fill="currentColor" transform="translate(77.6 4.9)" />
    <rect x="-.07" y="-.31" width=".13" height="2.85" ry=".04" fill="currentColor" transform="translate(71.42 13.9)" />
    <rect x="-.07" y="-1.27" width=".13" height="3.09" ry=".04" fill="currentColor" transform="translate(72.6 4.9)" />
    <path
        d="M72.23 12.85c.22 0 .43.11.43.36 0 .28-.22.48-.4.6a.9.9 0 0 1-.47.13c-.22 0-.43-.11-.43-.36 0-.28.22-.48.4-.6a.9.9 0 0 1 .47-.13zM72.23 6.35c.22 0 .43.11.43.36 0 .28-.22.48-.4.6a.9.9 0 0 1-.47.13c-.22 0-.43-.11-.43-.36 0-.28.22-.48.4-.6a.9.9 0 0 1 .47-.13zM79.73 14.35c.22 0 .44.11.44.36 0 .28-.22.48-.41.6a.9.9 0 0 1-.47.13c-.22 0-.43-.11-.43-.36 0-.28.22-.48.4-.6a.9.9 0 0 1 .47-.13zM79.49 1.72c.05-.03.1-.06.14-.12.03-.03.04-.07.06-.11l.03-.02c.01 0 .03.02.03.04V2h.18c.02 0 .04.02.04.04s-.02.04-.04.04h-.18c0 .11.07.21.18.21.02 0 .03.02.03.03s-.01.03-.03.03c-.11 0-.21-.03-.32-.03s-.21.03-.32.03c-.02 0-.03-.01-.03-.03s0-.03.03-.03c.1 0 .17-.1.18-.21h-.34c-.06 0-.08-.04-.08-.06v-.02c.17-.2.27-.44.27-.7 0-.03.02-.05.04-.05l.18.03c.06 0 .11-.01.17-.03.03 0 .05.02.05.03v.02l-.63.7h.34v-.21c0-.02 0-.05.02-.06zM79.73 7.85c.22 0 .44.11.44.36 0 .28-.22.48-.41.6a.9.9 0 0 1-.47.13c-.22 0-.43-.11-.43-.36 0-.28.22-.48.4-.6a.9.9 0 0 1 .47-.13z"
        fill="currentColor" />
    <rect x="-.07" y="-2.18" width=".13" height="2.5" ry=".04" fill="currentColor" transform="translate(77.6 13.9)" />
    <rect x="-.07" y=".69" width=".13" height="2.31" ry=".04" fill="currentColor" transform="translate(26.35 13.9)" />
    <rect x="-.07" y="-.2" width=".13" height="3.01" ry=".04" fill="currentColor" transform="translate(27.52 4.9)" />
    <path
        d="M27.15 13.85c.22 0 .44.11.44.36 0 .28-.22.48-.41.6a.9.9 0 0 1-.47.13c-.22 0-.43-.11-.43-.36 0-.28.22-.48.41-.6a.9.9 0 0 1 .46-.13zM26.83 2.06h.28c0 .11.07.22.18.22.02 0 .03.02.03.03s0 .03-.03.03c-.1 0-.21-.03-.32-.03s-.21.03-.32.03c-.02 0-.03-.01-.03-.03s0-.03.03-.03c.1 0 .18-.1.18-.22zm-.29-.27.29-.55h.04c.03.02.06.03.1.03s.07-.01.1-.03c.02 0 .04.02.04.05v.77h-.28v-.47c0-.04-.03-.05-.05-.05l-.02.01-.15.28c0 .02-.02.02-.03.02-.02 0-.04-.01-.04-.04V1.8zM27.15 7.35c.22 0 .44.11.44.36 0 .28-.22.48-.41.6a.9.9 0 0 1-.47.13c-.22 0-.43-.11-.43-.36 0-.28.22-.48.41-.6a.9.9 0 0 1 .46-.13zM29.66 6.85c.22 0 .43.11.43.36 0 .28-.22.48-.4.6a.9.9 0 0 1-.47.13c-.22 0-.43-.11-.43-.36 0-.28.22-.48.4-.6a.9.9 0 0 1 .47-.13z"
        fill="currentColor" />
    <rect x="-.07" y="-1.8" width=".13" height="2.62" ry=".04" fill="currentColor" transform="translate(25 13.9)" />
    <rect x="-.07" width=".13" height="3.31" ry=".04" fill="currentColor" transform="translate(25 4.9)" />
    <path
        d="M24.64 14.35c.22 0 .43.11.43.36 0 .28-.22.48-.4.6a.9.9 0 0 1-.47.13c-.22 0-.43-.11-.43-.36 0-.28.22-.48.4-.6a.9.9 0 0 1 .47-.13zM24.4 1.72c.05-.03.1-.06.14-.12l.06-.11.02-.02c.02 0 .04.02.04.04V2h.17c.03 0 .04.02.04.04s-.01.04-.04.04h-.17c0 .11.07.21.18.21.02 0 .03.02.03.03s-.01.03-.03.03c-.11 0-.22-.03-.32-.03s-.22.03-.33.03c-.02 0-.03-.01-.03-.03s.01-.03.03-.03c.1 0 .18-.1.18-.21h-.33c-.07 0-.08-.04-.08-.06v-.02c.17-.2.27-.44.27-.7 0-.03.02-.05.04-.05l.17.03a.7.7 0 0 0 .17-.03h.02c.02 0 .03.02.03.03v.02l-.62.7h.33v-.21c0-.02 0-.05.03-.06zM24.64 7.85c.22 0 .43.11.43.36 0 .28-.22.48-.4.6a.9.9 0 0 1-.47.13c-.22 0-.43-.11-.43-.36 0-.28.22-.48.4-.6a.9.9 0 0 1 .47-.13z"
        fill="currentColor" />
    <rect x="-.07" y="-.85" width=".13" height="2.67" ry=".04" fill="currentColor" transform="translate(32.53 4.9)" />
    <rect x="-.07" y="-1.18" width=".13" height="2.5" ry=".04" fill="currentColor" transform="translate(35.03 4.9)" />
    <path
        d="M34.67 12.35c.22 0 .43.11.43.36 0 .28-.22.48-.41.6a.9.9 0 0 1-.46.13c-.22 0-.44-.11-.44-.36 0-.28.22-.48.41-.6a.9.9 0 0 1 .47-.13zM34.42 1.72c.05-.03.1-.06.14-.12l.07-.11c0-.01 0-.02.02-.02s.04.02.04.04V2h.17c.03 0 .04.02.04.04s-.01.04-.04.04h-.17c0 .11.07.21.17.21.02 0 .03.02.03.03s0 .03-.03.03c-.1 0-.21-.03-.32-.03s-.21.03-.32.03c-.02 0-.03-.01-.03-.03s0-.03.03-.03c.1 0 .17-.1.18-.21h-.34c-.06 0-.08-.04-.08-.06v-.02c.18-.2.28-.44.28-.7 0-.03.01-.05.03-.05h.01c.06.02.11.03.17.03s.11-.01.17-.03h.01c.02 0 .04.02.04.03v.02l-.63.7h.34v-.21c0-.02 0-.05.02-.06zM34.67 5.85c.22 0 .43.11.43.36 0 .28-.22.48-.41.6a.9.9 0 0 1-.46.13c-.22 0-.44-.11-.44-.36 0-.28.22-.48.41-.6a.9.9 0 0 1 .47-.13zM52.2 2.35c.23 0 .44.11.44.36 0 .28-.22.48-.41.6a.9.9 0 0 1-.46.13c-.22 0-.44-.11-.44-.36 0-.28.22-.48.41-.6a.9.9 0 0 1 .47-.13z"
        fill="currentColor" />
    <rect x="-.07" y="-.31" width=".13" height="2.78" ry=".04" fill="currentColor" transform="translate(31.36 13.9)" />
    <path
        d="M32.16 12.85c.22 0 .43.11.43.36 0 .28-.22.48-.4.6a.9.9 0 0 1-.47.13c-.22 0-.43-.11-.43-.36 0-.28.22-.48.4-.6a.9.9 0 0 1 .47-.13zM32.16 6.35c.22 0 .43.11.43.36 0 .28-.22.48-.4.6a.9.9 0 0 1-.47.13c-.22 0-.43-.11-.43-.36 0-.28.22-.48.4-.6a.9.9 0 0 1 .47-.13z"
        fill="currentColor" />
    <rect x="-.07" y=".19" width=".13" height="2.54" ry=".04" fill="currentColor" transform="translate(28.85 13.9)" />
    <rect x="-.07" y="-.53" width=".13" height="2.84" ry=".04" fill="currentColor" transform="translate(30.03 4.9)" />
    <path
        d="M29.66 13.35c.22 0 .43.11.43.36 0 .28-.22.48-.4.6a.9.9 0 0 1-.47.13c-.22 0-.43-.11-.43-.36 0-.28.22-.48.4-.6a.9.9 0 0 1 .47-.13zM17.13 15.85c.22 0 .43.11.43.36 0 .28-.22.48-.4.6a.9.9 0 0 1-.47.13c-.22 0-.43-.11-.43-.36 0-.28.22-.48.4-.6a.9.9 0 0 1 .47-.13z"
        fill="currentColor" />
    <rect x="-.07" y="-1.01" width=".13" height="3.32" ry=".04" fill="currentColor" transform="translate(17.5 13.9)" />
    <rect x="-.07" width=".13" height="4.81" ry=".04" fill="currentColor" transform="translate(17.5 4.9)" />
    <path
        d="M13.06 14.73v.31c0 .09 0 .17.02.26.18-.15.37-.32.37-.55 0-.14-.06-.27-.17-.27-.13 0-.21.12-.22.25zm-.16.72-.05-2.38c.03-.02.07-.04.1-.04s.08.02.11.04l-.02 1.38c.1-.09.23-.14.36-.14.2 0 .36.2.36.4 0 .33-.35.48-.6.68-.05.06-.09.16-.17.16-.05 0-.1-.05-.1-.1zM11.56 13.4c0-.12.1-.21.2-.21s.21.1.21.2-.09.2-.2.2-.2-.08-.2-.2zm0-1c0-.12.1-.21.2-.21s.21.1.21.2-.09.2-.2.2-.2-.08-.2-.2zm-1.3-.56c.7 0 1.18.35 1.18 1 0 1.06-1.06 1.66-2.07 2.09a.05.05 0 0 1-.03.02.05.05 0 0 1-.06-.06s0-.02.02-.03c.8-.47 1.65-1.06 1.65-1.97 0-.48-.25-.94-.69-.94-.3 0-.51.21-.61.5a.32.32 0 0 1 .13-.03c.22 0 .4.18.4.4 0 .23-.17.42-.4.42-.24 0-.44-.19-.44-.42 0-.53.4-.98.92-.98zM13.06 4.73v.31c0 .09 0 .17.02.26.18-.15.37-.32.37-.55 0-.14-.06-.27-.17-.27-.13 0-.21.12-.22.25zm-.16.72-.05-2.38c.03-.02.07-.04.1-.04s.08.02.11.04l-.02 1.38c.1-.09.23-.14.36-.14.2 0 .36.2.36.4 0 .33-.35.48-.6.68-.05.06-.09.16-.17.16-.05 0-.1-.05-.1-.1zM10.4 8.43h-.02a.78.78 0 0 1-.78-.78c0-.24.2-.42.44-.42.22 0 .38.2.38.42 0 .2-.17.38-.38.38L9.92 8c.1.16.27.26.47.26h.01zm.78-1.72c.27-.1.45-.38.45-.66a.76.76 0 0 0-.69-.76c.1.46.18.92.24 1.42zm-1.55-.93c0 .54.52.99 1.06.99.11 0 .22 0 .33-.02-.06-.51-.15-.98-.26-1.46-.31.03-.5.24-.5.48 0 .17.1.36.33.49l.03.06a.1.1 0 0 1-.09.09l-.03-.01a.84.84 0 0 1-.47-.74c0-.35.23-.7.64-.79l-.19-.7c-.42.48-.85.97-.85 1.61zm1.05 1.16c-.76 0-1.34-.69-1.34-1.5 0-.7.53-1.22 1-1.76a4.47 4.47 0 0 1-.21-1.38c0-.46.22-.9.6-1.17a.06.06 0 0 1 .07 0c.29.34.54.98.54 1.43 0 .57-.35 1.02-.72 1.46l.22.83h.05c.62 0 1.03.5 1.03 1.04a1.04 1.04 0 0 1-.72.98 4.92 4.92 0 0 1 0 .65c-.02.48-.34.9-.8.91v-.17c.38 0 .62-.37.64-.76a4.04 4.04 0 0 0 0-.59l-.36.03zm.37-4.71c0-.22-.02-.32-.08-.52-.4.2-.65.6-.65 1.04 0 .3.07.53.14.78.32-.4.59-.8.59-1.3zM16.8 2.06h.29c0 .11.07.22.17.22.03 0 .03.02.03.03s0 .03-.03.03c-.1 0-.21-.03-.32-.03s-.2.03-.32.03c-.02 0-.03-.01-.03-.03s.01-.03.03-.03c.11 0 .18-.1.18-.22zm-.28-.27.28-.55h.05c.03.02.06.03.1.03s.06-.01.1-.03c.02 0 .04.02.04.05v.77h-.3v-.47c0-.04-.02-.05-.03-.05l-.03.01-.14.28c-.01.02-.02.02-.04.02s-.04-.01-.04-.04V1.8zM17.13 9.35c.22 0 .43.11.43.36 0 .28-.22.48-.4.6a.9.9 0 0 1-.47.13c-.22 0-.43-.11-.43-.36 0-.28.22-.48.4-.6a.9.9 0 0 1 .47-.13z"
        fill="currentColor" />
    <rect y="-6.55" width=".16" height="13.1" ry=".05" fill="currentColor" transform="translate(8.48 9.4)" />
    <path
        d="M7.42 13.98c0-1.07.43-2.11.43-3.12 0-.54-.13-1.05-.51-1.44-.02-.01-.02-.01-.02-.03l.02-.02c.38-.4.51-.9.51-1.44 0-1-.43-2.05-.43-3.12 0-.76.18-1.46.7-2 .07-.06.16.03.1.1-.4.39-.51.9-.51 1.43 0 1 .4 2.02.4 3.06 0 .75-.17 1.45-.69 2 .52.53.7 1.24.7 1.99 0 1.04-.41 2.06-.41 3.06 0 .54.12 1.04.51 1.44.06.06-.03.15-.1.1a2.75 2.75 0 0 1-.7-2.01z"
        fill="currentColor" />
    <rect x="-.07" y="-1.27" width=".13" height="3.09" ry=".04" fill="currentColor" transform="translate(20 13.9)" />
    <rect x="-.07" y="-1.54" width=".13" height="2.85" ry=".04" fill="currentColor" transform="translate(22.5 13.9)" />
    <rect x="-.07" width=".13" height="3.81" ry=".04" fill="currentColor" transform="translate(22.5 4.9)" />
    <path
        d="M22.14 14.85c.22 0 .43.11.43.36 0 .28-.22.48-.41.6a.9.9 0 0 1-.46.13c-.22 0-.44-.11-.44-.36 0-.28.22-.48.41-.6a.9.9 0 0 1 .47-.13zM22.14 8.35c.22 0 .43.11.43.36 0 .28-.22.48-.41.6a.9.9 0 0 1-.46.13c-.22 0-.44-.11-.44-.36 0-.28.22-.48.41-.6a.9.9 0 0 1 .47-.13z"
        fill="currentColor" />
    <rect x="-.07" width=".13" height="4.31" ry=".04" fill="currentColor" transform="translate(20 4.9)" />
    <path
        d="M19.63 15.35c.22 0 .43.11.43.36 0 .28-.22.48-.4.6a.9.9 0 0 1-.47.13c-.22 0-.43-.11-.43-.36 0-.28.22-.48.4-.6a.9.9 0 0 1 .47-.13zM19.63 8.85c.22 0 .43.11.43.36 0 .28-.22.48-.4.6a.9.9 0 0 1-.47.13c-.22 0-.43-.11-.43-.36 0-.28.22-.48.4-.6a.9.9 0 0 1 .47-.13zM42.18 4.35c.22 0 .43.11.43.36 0 .28-.22.48-.4.6a.9.9 0 0 1-.47.13c-.22 0-.43-.11-.43-.36 0-.28.22-.48.4-.6a.9.9 0 0 1 .47-.13z"
        fill="currentColor" />
    <rect x="-.07" y="-2.31" width=".13" height="2.84" ry=".04" fill="currentColor" transform="translate(41.37 13.9)" />
    <rect x="-.07" y="-2.73" width=".13" height="2.54" ry=".04" fill="currentColor" transform="translate(42.55 4.9)" />
    <path
        d="M42.18 10.85c.22 0 .43.11.43.36 0 .28-.22.48-.4.6a.9.9 0 0 1-.47.13c-.22 0-.43-.11-.43-.36 0-.28.22-.48.4-.6a.9.9 0 0 1 .47-.13zM41.9.39c-.07 0-.15.02-.15.08 0 .05.07.05.07.1 0 .06-.05.1-.11.1s-.11-.04-.11-.1c0-.15.15-.24.3-.24.21 0 .39.06.39.24 0 .1-.01.17-.1.21-.02.01-.03.04-.03.06s.01.05.04.06c.09.04.13.12.13.22 0 .2-.18.3-.41.3-.18 0-.35-.1-.35-.26a.13.13 0 0 1 .25 0c0 .05-.08.06-.08.11 0 .07.1.1.18.1.1 0 .12-.14.12-.25v-.09c0-.09 0-.15-.1-.15h-.16c-.02 0-.04-.02-.04-.04s.02-.04.04-.04h.17c.09 0 .1-.07.1-.16V.57c0-.1-.04-.18-.14-.18zM49.7 2.85c.22 0 .43.11.43.36 0 .28-.22.48-.4.6a.9.9 0 0 1-.47.13c-.22 0-.43-.11-.43-.36 0-.28.22-.48.4-.6a.9.9 0 0 1 .47-.13z"
        fill="currentColor" />
    <rect x="-.07" y="-1.81" width=".13" height="2.67" ry=".04" fill="currentColor" transform="translate(38.87 13.9)" />
    <rect x="-.07" y="-2.46" width=".13" height="2.78" ry=".04" fill="currentColor" transform="translate(40.04 4.9)" />
    <path
        d="M39.67 11.35c.22 0 .44.11.44.36 0 .28-.22.48-.41.6a.9.9 0 0 1-.47.13c-.22 0-.43-.11-.43-.36 0-.28.22-.48.41-.6a.9.9 0 0 1 .46-.13z"
        fill="currentColor" />
    <rect x="-.07" y="-3.31" width=".13" height="3.31" ry=".04" fill="currentColor" transform="translate(46.39 13.9)" />
    <rect x="-.07" y="-.81" width=".13" height="3" ry=".04" fill="currentColor" transform="translate(46.39 4.9)" />
    <path
        d="M47.2 9.85c.22 0 .43.11.43.36 0 .28-.22.48-.4.6a.9.9 0 0 1-.47.13c-.22 0-.44-.11-.44-.36 0-.28.22-.48.41-.6a.9.9 0 0 1 .47-.13zM47.2 3.35c.22 0 .43.11.43.36 0 .28-.22.48-.4.6a.9.9 0 0 1-.47.13c-.22 0-.44-.11-.44-.36 0-.28.22-.48.41-.6a.9.9 0 0 1 .47-.13z"
        fill="currentColor" />
    <rect x="-.07" y="-2.81" width=".13" height="3.01" ry=".04" fill="currentColor" transform="translate(43.88 13.9)" />
    <rect x="-.07" y="-2.99" width=".13" height="2.31" ry=".04" fill="currentColor" transform="translate(45.05 4.9)" />
    <path
        d="M44.68 10.35c.22 0 .44.11.44.36 0 .28-.22.48-.41.6a.9.9 0 0 1-.47.13c-.22 0-.43-.11-.43-.36 0-.28.22-.48.4-.6a.9.9 0 0 1 .47-.13zM44.35.88h.3c0 .11.06.22.17.22.02 0 .03.01.03.03s0 .03-.03.03c-.1 0-.21-.03-.32-.03s-.21.03-.32.03c-.02 0-.03-.01-.03-.03s0-.03.03-.03c.1 0 .17-.1.17-.22zM44.07.6l.28-.55h.05c.03.01.06.03.1.03s.07-.02.1-.03c.02 0 .04.02.04.04v.78h-.29V.4c0-.03-.02-.05-.04-.05-.01 0-.02 0-.02.02l-.15.28-.03.02c-.02 0-.04-.02-.04-.04V.61zM44.68 3.85c.22 0 .44.11.44.36 0 .28-.22.48-.41.6a.9.9 0 0 1-.47.13c-.22 0-.43-.11-.43-.36 0-.28.22-.48.4-.6a.9.9 0 0 1 .47-.13zM36.84 1.67h.29c0 .12.07.22.18.22.02 0 .03.02.03.04s-.01.03-.03.03l-.33-.03c-.1 0-.2.03-.31.03-.03 0-.04-.02-.04-.03s.01-.04.04-.04c.1 0 .17-.1.17-.22zm-.28-.26.28-.55c0-.02.03-.01.05 0 .03.01.06.03.1.03s.06-.02.1-.03c.02 0 .04.01.04.04v.77h-.29V1.2c0-.03-.02-.05-.04-.05-.01 0-.02 0-.03.02l-.14.27c-.01.02-.02.02-.03.02-.02 0-.05-.01-.05-.03V1.4z"
        fill="currentColor" />
    <rect x="-.07" y="-3.81" width=".13" height="3.81" ry=".04" fill="currentColor" transform="translate(48.9 13.9)" />
    <rect x="-.07" y="-2.2" width=".13" height="3.01" ry=".04" fill="currentColor" transform="translate(37.54 4.9)" />
    <path
        d="M37.17 11.85c.22 0 .43.11.43.36 0 .28-.22.48-.4.6a.9.9 0 0 1-.47.13c-.22 0-.43-.11-.43-.36 0-.28.22-.48.4-.6a.9.9 0 0 1 .47-.13zM49.7 9.35c.22 0 .43.11.43.36 0 .28-.22.48-.4.6a.9.9 0 0 1-.47.13c-.22 0-.43-.11-.43-.36 0-.28.22-.48.4-.6a.9.9 0 0 1 .47-.13zM37.17 5.35c.22 0 .43.11.43.36 0 .28-.22.48-.4.6a.9.9 0 0 1-.47.13c-.22 0-.43-.11-.43-.36 0-.28.22-.48.4-.6a.9.9 0 0 1 .47-.13z"
        fill="currentColor" />
    <rect x="-.07" y="-.81" width=".13" height="3.01" ry=".04" fill="currentColor" transform="translate(33.86 13.9)" />
    <rect x="-.07" y="-1.31" width=".13" height="2.5" ry=".04" fill="currentColor" transform="translate(36.36 13.9)" />
    <path
        d="M39.67 4.85c.22 0 .44.11.44.36 0 .28-.22.48-.41.6a.9.9 0 0 1-.47.13c-.22 0-.43-.11-.43-.36 0-.28.22-.48.41-.6a.9.9 0 0 1 .46-.13z"
        fill="currentColor" />
    <rect x="-.07" y="-1.31" width=".13" height="3.38" ry=".04" fill="currentColor" transform="translate(48.9 4.9)" />
</svg>