<svg xmlns="http://www.w3.org/2000/svg" version="1.2" width="550.49" height="119.4" viewBox="7.32 0 82.88 17.98">
    <style></style>
    <path stroke-linejoin="round" stroke-linecap="round" stroke-width=".1" stroke="currentColor"
        d="M8.59 6.67H90.2M8.59 5.67H90.2M8.59 4.67H90.2M8.59 3.67H90.2M8.59 2.67H90.2" />
    <rect x="86.23" y="-.1" width="1.96" height=".2" ry=".1" fill="currentColor" transform="translate(0 7.67)" />
    <rect x="86.23" y="-.1" width="1.96" height=".2" ry=".1" fill="currentColor" transform="translate(0 8.67)" />
    <rect x="83.72" y="-.1" width="1.96" height=".2" ry=".1" fill="currentColor" transform="translate(0 7.67)" />
    <rect x="83.72" y="-.1" width="1.96" height=".2" ry=".1" fill="currentColor" transform="translate(0 8.67)" />
    <rect x="81.22" y="-.1" width="1.96" height=".2" ry=".1" fill="currentColor" transform="translate(0 7.67)" />
    <rect x="78.72" y="-.1" width="1.96" height=".2" ry=".1" fill="currentColor" transform="translate(0 7.67)" />
    <rect x="23.62" y="-.1" width="1.96" height=".2" ry=".1" fill="currentColor" transform="translate(0 7.67)" />
    <rect x="21.12" y="-.1" width="1.96" height=".2" ry=".1" fill="currentColor" transform="translate(0 7.67)" />
    <rect x="18.61" y="-.1" width="1.96" height=".2" ry=".1" fill="currentColor" transform="translate(0 7.67)" />
    <rect x="18.61" y="-.1" width="1.96" height=".2" ry=".1" fill="currentColor" transform="translate(0 8.67)" />
    <rect x="16.11" y="-.1" width="1.96" height=".2" ry=".1" fill="currentColor" transform="translate(0 7.67)" />
    <rect x="16.11" y="-.1" width="1.96" height=".2" ry=".1" fill="currentColor" transform="translate(0 8.67)" />
    <rect x="61.2" y="-.1" width="1.96" height=".2" ry=".1" fill="currentColor" transform="translate(0 11.93)" />
    <rect x="58.7" y="-.1" width="1.96" height=".2" ry=".1" fill="currentColor" transform="translate(0 11.93)" />
    <rect x="56.2" y="-.1" width="1.96" height=".2" ry=".1" fill="currentColor" transform="translate(0 10.93)" />
    <rect x="56.2" y="-.1" width="1.96" height=".2" ry=".1" fill="currentColor" transform="translate(0 11.93)" />
    <rect x="53.69" y="-.1" width="1.96" height=".2" ry=".1" fill="currentColor" transform="translate(0 10.93)" />
    <rect x="53.69" y="-.1" width="1.96" height=".2" ry=".1" fill="currentColor" transform="translate(0 11.93)" />
    <rect x="51.19" y="-.1" width="1.96" height=".2" ry=".1" fill="currentColor" transform="translate(0 9.93)" />
    <rect x="51.19" y="-.1" width="1.96" height=".2" ry=".1" fill="currentColor" transform="translate(0 10.93)" />
    <rect x="51.19" y="-.1" width="1.96" height=".2" ry=".1" fill="currentColor" transform="translate(0 11.93)" />
    <rect x="48.68" y="-.1" width="1.96" height=".2" ry=".1" fill="currentColor" transform="translate(0 10.93)" />
    <rect x="48.68" y="-.1" width="1.96" height=".2" ry=".1" fill="currentColor" transform="translate(0 11.93)" />
    <rect x="46.18" y="-.1" width="1.96" height=".2" ry=".1" fill="currentColor" transform="translate(0 10.93)" />
    <rect x="46.18" y="-.1" width="1.96" height=".2" ry=".1" fill="currentColor" transform="translate(0 11.93)" />
    <rect x="43.67" y="-.1" width="1.96" height=".2" ry=".1" fill="currentColor" transform="translate(0 11.93)" />
    <rect x="41.17" y="-.1" width="1.96" height=".2" ry=".1" fill="currentColor" transform="translate(0 11.93)" />
    <path stroke-linejoin="round" stroke-linecap="round" stroke-width=".1" stroke="currentColor"
        d="M8.59 16.93H90.2M8.59 15.93H90.2M8.59 14.93H90.2M8.59 13.93H90.2M8.59 12.93H90.2" />
    <rect x="-.07" y="-2.81" width=".13" height="2.94" ry=".04" fill="currentColor" transform="translate(61.6 14.93)" />
    <rect x="-.07" y="-2.31" width=".13" height="2.5" ry=".04" fill="currentColor" transform="translate(64.1 14.93)" />
    <path
        d="M64.9 4.13c.23 0 .44.11.44.35 0 .29-.22.49-.41.6a.9.9 0 0 1-.46.14c-.22 0-.44-.12-.44-.36 0-.28.22-.48.41-.6a.9.9 0 0 1 .47-.13zM64.63 1.09c-.07 0-.15.01-.15.08 0 .04.07.05.07.1s-.05.1-.11.1-.12-.05-.12-.1c0-.16.15-.25.31-.25.2 0 .39.07.39.25 0 .1-.02.17-.1.2-.02.02-.03.04-.03.07s.01.04.03.06c.1.04.13.11.13.21 0 .2-.18.31-.4.31-.18 0-.36-.1-.36-.26a.13.13 0 0 1 .26 0c0 .05-.08.06-.08.1 0 .08.1.1.18.1.1 0 .12-.13.12-.25v-.08c0-.09-.01-.15-.1-.15h-.16c-.03 0-.04-.02-.04-.04s.02-.04.04-.04h.16c.1 0 .1-.07.1-.16v-.07c0-.11-.04-.18-.14-.18zM64.9 11.88c.23 0 .44.12.44.36 0 .28-.22.48-.41.6a.9.9 0 0 1-.46.13c-.22 0-.44-.11-.44-.35 0-.29.22-.49.41-.6a.9.9 0 0 1 .47-.14z"
        fill="currentColor" />
    <rect x="-.07" y=".19" width=".13" height="2.62" ry=".04" fill="currentColor" transform="translate(64.1 4.67)" />
    <rect x="-.07" y="-.31" width=".13" height="2.85" ry=".04" fill="currentColor" transform="translate(61.6 4.67)" />
    <path
        d="M62.4 11.38c.22 0 .43.12.43.36 0 .28-.22.48-.4.6a.9.9 0 0 1-.47.13c-.22 0-.43-.11-.43-.35 0-.29.22-.49.4-.6a.9.9 0 0 1 .47-.14zM62.07 1.84h.29c0 .11.07.22.18.22.02 0 .03.02.03.03s-.01.03-.03.03c-.11 0-.22-.03-.32-.03s-.21.03-.32.03c-.02 0-.04-.01-.04-.03s.02-.03.04-.03c.1 0 .17-.1.17-.22zm-.28-.27.28-.55h.05c.03.01.06.03.1.03s.06-.02.1-.03c.02 0 .04.02.04.05v.77h-.29v-.48c0-.03-.02-.05-.04-.05-.01 0-.02 0-.02.02l-.15.28-.03.02c-.02 0-.04-.02-.04-.04v-.02zM62.4 3.63c.22 0 .43.11.43.35 0 .29-.22.49-.4.6a.9.9 0 0 1-.47.14c-.22 0-.43-.12-.43-.36 0-.28.22-.48.4-.6a.9.9 0 0 1 .47-.13z"
        fill="currentColor" />
    <rect x="-.07" y="-3.31" width=".13" height="3.38" ry=".04" fill="currentColor" transform="translate(59.1 14.93)" />
    <path
        d="M52.39 9.38c.22 0 .43.12.43.36 0 .28-.22.48-.41.6a.9.9 0 0 1-.46.13c-.22 0-.44-.11-.44-.35 0-.29.22-.49.41-.6a.9.9 0 0 1 .47-.14z"
        fill="currentColor" />
    <rect x="-.07" y="-1.31" width=".13" height="2.84" ry=".04" fill="currentColor" transform="translate(69.1 14.93)" />
    <rect x="-.07" y="-1.85" width=".13" height="2.67" ry=".04" fill="currentColor" transform="translate(70.27 4.67)" />
    <path
        d="M69.58 12.1h.28c0 .1.07.21.18.21.02 0 .03.02.03.04s0 .03-.03.03c-.1 0-.21-.03-.32-.03s-.21.03-.32.03c-.02 0-.03-.02-.03-.03s0-.04.03-.04c.1 0 .18-.1.18-.22zm-.29-.27.29-.55c0-.02.03 0 .04 0 .03.01.06.03.1.03s.07-.02.1-.03c.03 0 .04.02.04.04v.77h-.28v-.47c0-.03-.03-.05-.05-.05 0 0-.02 0-.02.02l-.15.27c0 .02-.02.02-.03.02-.02 0-.04-.01-.04-.03v-.02zM69.9 12.88c.23 0 .44.12.44.36 0 .28-.22.48-.41.6a.9.9 0 0 1-.46.13c-.22 0-.44-.11-.44-.35 0-.29.22-.49.41-.6a.9.9 0 0 1 .47-.14zM69.58 1.8h.28c0 .1.07.21.18.21.02 0 .03.02.03.04s0 .03-.03.03c-.1 0-.21-.03-.32-.03s-.21.03-.32.03c-.02 0-.03-.02-.03-.03s0-.04.03-.04c.1 0 .18-.1.18-.22zm-.29-.27.29-.55c0-.02.03 0 .04 0 .03.01.06.03.1.03s.07-.02.1-.03c.03 0 .04.02.04.04v.77h-.28v-.47c0-.03-.03-.05-.05-.05 0 0-.02 0-.02.02l-.15.28-.03.02c-.02 0-.04-.02-.04-.04v-.02zM69.9 5.13c.23 0 .44.11.44.35 0 .29-.22.49-.41.6a.9.9 0 0 1-.46.14c-.22 0-.44-.12-.44-.36 0-.28.22-.48.41-.6a.9.9 0 0 1 .47-.13z"
        fill="currentColor" />
    <rect x="-.07" y="-1.81" width=".13" height="3.01" ry=".04" fill="currentColor" transform="translate(66.6 14.93)" />
    <rect x="-.07" y="-2.18" width=".13" height="2.5" ry=".04" fill="currentColor" transform="translate(67.77 4.67)" />
    <path
        d="M67.16 11.26c.05-.04.1-.07.14-.12.03-.03.04-.07.06-.11l.02-.02c.02 0 .04.02.04.04v.48h.17c.03 0 .04.02.04.04s-.01.04-.04.04h-.17c0 .11.07.2.18.2.02 0 .03.03.03.04s-.01.03-.03.03c-.11 0-.22-.03-.32-.03s-.22.03-.32.03c-.03 0-.04-.01-.04-.03s.01-.03.04-.03c.1 0 .17-.1.17-.21h-.33c-.06 0-.08-.04-.08-.06v-.02c.17-.2.27-.44.27-.7 0-.03.02-.05.04-.05l.17.03a.7.7 0 0 0 .17-.03h.02c.02 0 .03.02.03.03v.02l-.62.7h.33v-.21c0-.02 0-.05.03-.06zM67.4 12.38c.22 0 .43.12.43.36 0 .28-.22.48-.4.6a.9.9 0 0 1-.47.13c-.22 0-.43-.11-.43-.35 0-.29.22-.49.4-.6a.9.9 0 0 1 .47-.14zM67.4 4.63c.22 0 .43.11.43.35 0 .29-.22.49-.4.6a.9.9 0 0 1-.47.14c-.22 0-.43-.12-.43-.36 0-.28.22-.48.4-.6a.9.9 0 0 1 .47-.13zM54.89 9.88c.22 0 .43.12.43.36 0 .28-.22.48-.4.6a.9.9 0 0 1-.47.13c-.22 0-.43-.11-.43-.35 0-.29.22-.49.4-.6a.9.9 0 0 1 .47-.14zM57.12 8.85c-.07 0-.15.01-.15.08 0 .04.07.05.07.1s-.05.1-.12.1-.1-.05-.1-.1c0-.16.14-.25.3-.25.2 0 .38.07.38.25 0 .1 0 .17-.09.2-.02.02-.04.04-.04.07s.02.05.04.06c.09.04.13.11.13.21 0 .2-.18.31-.4.31-.19 0-.36-.1-.36-.26a.13.13 0 0 1 .26 0c0 .05-.08.06-.08.1 0 .08.09.1.17.1.1 0 .13-.13.13-.25V9.5c0-.09-.01-.15-.1-.15H57c-.03 0-.04-.02-.04-.04s.01-.04.04-.04h.16c.09 0 .1-.07.1-.16v-.07c0-.1-.04-.18-.14-.18zM57.4 10.38c.21 0 .43.12.43.36 0 .28-.22.48-.41.6a.9.9 0 0 1-.47.13c-.22 0-.43-.11-.43-.35 0-.29.22-.49.41-.6a.9.9 0 0 1 .46-.14zM57.4 2.63c.21 0 .43.11.43.35 0 .29-.22.49-.41.6a.9.9 0 0 1-.47.14c-.22 0-.43-.12-.43-.36 0-.28.22-.48.41-.6a.9.9 0 0 1 .46-.13z"
        fill="currentColor" />
    <rect x="-.07" y="-4.31" width=".13" height="4.31" ry=".04" fill="currentColor"
        transform="translate(54.08 14.93)" />
    <rect x="-.07" y="-1.81" width=".13" height="2.63" ry=".04" fill="currentColor" transform="translate(54.08 4.67)" />
    <rect x="-.07" y="-1.31" width=".13" height="3.32" ry=".04" fill="currentColor" transform="translate(56.59 4.67)" />
    <path
        d="M54.64 1c.06-.03.11-.06.15-.11l.06-.12.02-.01c.02 0 .04.01.04.04v.47h.17c.03 0 .04.02.04.04s-.01.04-.04.04h-.17c0 .11.07.21.17.21.03 0 .04.02.04.04s-.01.03-.04.03c-.1 0-.2-.03-.31-.03s-.22.03-.33.03c-.02 0-.03-.02-.03-.03s.01-.04.03-.04c.1 0 .18-.1.18-.2h-.33c-.07 0-.09-.05-.09-.07v-.02c.18-.2.28-.44.28-.7 0-.02.02-.05.04-.05.06.02.12.04.17.04l.17-.03h.02c.02 0 .03.01.03.03v.01l-.62.7h.33v-.2c0-.03 0-.05.02-.07zM54.89 2.13c.22 0 .43.11.43.35 0 .29-.22.49-.4.6a.9.9 0 0 1-.47.14c-.22 0-.43-.12-.43-.36 0-.28.22-.48.4-.6a.9.9 0 0 1 .47-.13z"
        fill="currentColor" />
    <rect x="-.07" y="-4.81" width=".13" height="4.81" ry=".04" fill="currentColor"
        transform="translate(51.58 14.93)" />
    <rect x="-.07" y="-2.31" width=".13" height="3.25" ry=".04" fill="currentColor" transform="translate(51.58 4.67)" />
    <path
        d="M52.06 8.6h.28c0 .11.07.22.18.22.02 0 .03.02.03.03s0 .03-.03.03c-.1 0-.21-.03-.32-.03s-.21.03-.32.03c-.02 0-.03-.01-.03-.03s0-.03.03-.03c.1 0 .18-.1.18-.22zm-.29-.27.29-.55h.04c.03.02.06.03.1.03s.07-.01.1-.03c.02 0 .04.02.04.05v.77h-.28v-.47c0-.04-.03-.05-.05-.05l-.02.01-.15.28c0 .02-.02.02-.03.02-.02 0-.04-.02-.04-.04v-.02z"
        fill="currentColor" />
    <path stroke-linejoin="round" stroke-linecap="round" stroke-width=".08" fill="currentColor" stroke="currentColor"
        d="M25.21 4.28v.4l-7.56.2v-.4z" />
    <rect x="-.07" y="-.81" width=".13" height="3.09" ry=".04" fill="currentColor" transform="translate(59.1 4.67)" />
    <path
        d="M59.57 10.1h.29c0 .11.07.22.17.22.03 0 .03.02.03.03s0 .03-.03.03c-.1 0-.21-.03-.32-.03s-.2.03-.32.03c-.02 0-.03-.01-.03-.03s.01-.03.03-.03c.11 0 .18-.1.18-.22zm-.28-.27.28-.55h.05c.03.02.06.03.1.03s.06-.01.1-.03c.02 0 .04.02.04.05v.77h-.3v-.47c0-.04-.02-.05-.03-.05l-.03.01-.14.28c-.01.02-.02.02-.04.02s-.04-.02-.04-.04v-.02zM59.9 10.88c.22 0 .43.12.43.36 0 .28-.22.48-.4.6a.9.9 0 0 1-.47.13c-.22 0-.43-.11-.43-.35 0-.29.22-.49.4-.6a.9.9 0 0 1 .47-.14zM59.9 3.13c.22 0 .43.11.43.35 0 .29-.22.49-.4.6a.9.9 0 0 1-.47.14c-.22 0-.43-.12-.43-.36 0-.28.22-.48.4-.6a.9.9 0 0 1 .47-.13z"
        fill="currentColor" />
    <rect x="-.07" y="-3.81" width=".13" height="3.82" ry=".04" fill="currentColor"
        transform="translate(56.59 14.93)" />
    <rect x="-.07" width=".13" height="3.82" ry=".04" fill="currentColor" transform="translate(85.29 4.67)" />
    <path
        d="M84.92 15.88c.22 0 .43.12.43.36 0 .28-.22.48-.4.6a.9.9 0 0 1-.47.13c-.22 0-.43-.11-.43-.35 0-.29.22-.49.4-.6a.9.9 0 0 1 .47-.14zM84.92 8.13c.22 0 .43.11.43.35 0 .29-.22.49-.4.6a.9.9 0 0 1-.47.14c-.22 0-.43-.12-.43-.36 0-.28.22-.48.4-.6a.9.9 0 0 1 .47-.13z"
        fill="currentColor" />
    <rect x="-.07" y="-2.27" width=".13" height="3.09" ry=".04" fill="currentColor"
        transform="translate(82.78 14.93)" />
    <rect x="-.07" y="-2.01" width=".13" height="3.32" ry=".04" fill="currentColor"
        transform="translate(85.29 14.93)" />
    <rect x="-.07" y="-.06" width=".13" height="3.38" ry=".04" fill="currentColor" transform="translate(82.78 4.67)" />
    <path
        d="M82.42 15.38c.22 0 .43.12.43.36 0 .28-.22.48-.4.6a.9.9 0 0 1-.47.13c-.22 0-.43-.11-.43-.35 0-.29.22-.49.4-.6a.9.9 0 0 1 .47-.14zM82.15 1.09c-.08 0-.16.01-.16.08 0 .04.07.05.07.1s-.05.1-.11.1-.11-.05-.11-.1c0-.16.15-.25.3-.25.21 0 .39.07.39.25 0 .1-.01.17-.1.2-.02.02-.03.04-.03.07s.01.04.04.06c.08.04.13.11.13.21 0 .2-.19.31-.41.31-.18 0-.36-.1-.36-.26a.13.13 0 0 1 .26 0c0 .05-.08.06-.08.1 0 .08.1.1.18.1.1 0 .12-.13.12-.25v-.08c0-.09 0-.15-.1-.15h-.16c-.02 0-.04-.02-.04-.04s.02-.04.04-.04h.17c.08 0 .09-.07.09-.16v-.07c0-.11-.04-.18-.13-.18zM82.42 7.63c.22 0 .43.11.43.35 0 .29-.22.49-.4.6a.9.9 0 0 1-.47.14c-.22 0-.43-.12-.43-.36 0-.28.22-.48.4-.6a.9.9 0 0 1 .47-.13z"
        fill="currentColor" />
    <rect x="-.07" y="-2.54" width=".13" height="2.85" ry=".04" fill="currentColor"
        transform="translate(80.28 14.93)" />
    <path stroke-linejoin="round" stroke-linecap="round" stroke-width=".08" fill="currentColor" stroke="currentColor"
        d="M25.21 12.54v.4l-7.56 1v-.4zM35.24 2.66v.4l-7.56.81v-.4zM34.06 16.73v.4l-7.56.8v-.4zM44.09 6.66v.4l-7.56.81v-.4zM44.09 14.92v.4l-7.56.62v-.4zM54.1 5.28v.4l-7.56.38v-.4zM54.1 14.73v.4h-7.56v-.4zM64.12 7.28v.4l-7.56-.8v-.4zM64.12 14.92v.4l-7.56-.2v-.4zM75.3 3.28v.4l-7.56-1v-.4zM74.13 16.92v.4l-7.56-1v-.4zM85.31 4.47v.4l-7.56-.19v-.4zM85.31 12.73v.4l-7.56-.81v-.4z" />
    <rect x="-.07" y="-.13" width=".13" height="2.94" ry=".04" fill="currentColor" transform="translate(80.28 4.67)" />
    <rect x="-.07" y="-1.5" width=".13" height="3.31" ry=".04" fill="currentColor" transform="translate(87.8 14.93)" />
    <rect x="-.07" width=".13" height="4.31" ry=".04" fill="currentColor" transform="translate(87.8 4.67)" />
    <path
        d="M86.93 11.28a1.73 1.73 0 0 0 .6 0h.01c.03 0 .05.01.05.03l-.01.01a.8.8 0 0 1-.57.22c-.02 0-.04.03-.04.05v.16c.06-.06.14-.08.23-.08.26 0 .41.11.41.36 0 .2-.2.35-.44.35-.18 0-.36-.1-.36-.26a.13.13 0 0 1 .26 0c0 .04-.08.05-.08.1 0 .08.1.1.18.1.12 0 .16-.15.16-.3 0-.12-.02-.27-.13-.27-.1 0-.19.01-.24.08 0 .02-.02.02-.03.02a.04.04 0 0 1-.04-.04v-.49c0-.02.02-.04.04-.04zM87.43 16.38c.22 0 .43.12.43.36 0 .28-.22.48-.41.6a.9.9 0 0 1-.46.13c-.22 0-.44-.11-.44-.35 0-.29.22-.49.41-.6a.9.9 0 0 1 .47-.14zM87.1 1.84h.28c0 .11.07.22.18.22.02 0 .03.02.03.03s0 .03-.03.03c-.1 0-.21-.03-.32-.03s-.21.03-.32.03c-.02 0-.03-.01-.03-.03s0-.03.03-.03c.1 0 .18-.1.18-.22zm-.29-.27.29-.55h.04c.03.01.06.03.1.03s.07-.02.1-.03c.03 0 .04.02.04.05v.77h-.28v-.48c0-.03-.03-.05-.05-.05 0 0-.02 0-.02.02l-.15.28-.03.02c-.02 0-.04-.02-.04-.04v-.02zM87.43 8.63c.22 0 .43.11.43.35 0 .29-.22.49-.41.6a.9.9 0 0 1-.46.14c-.22 0-.44-.12-.44-.36 0-.28.22-.48.41-.6a.9.9 0 0 1 .47-.13zM74.91 13.88c.22 0 .44.12.44.36 0 .28-.22.48-.41.6a.9.9 0 0 1-.47.13c-.22 0-.43-.11-.43-.35 0-.29.22-.49.41-.6a.9.9 0 0 1 .46-.14zM77.08 11.1h.29c0 .12.07.22.17.22.03 0 .04.02.04.03s-.01.03-.04.03c-.1 0-.2-.03-.32-.03s-.2.03-.32.03c-.02 0-.03-.01-.03-.03s.01-.03.03-.03c.11 0 .18-.1.18-.22zm-.28-.27.28-.55h.05c.03.02.06.04.1.04s.06-.02.1-.04c.02 0 .04.02.04.05v.77h-.29v-.47c0-.04-.02-.05-.04-.05l-.03.01-.14.28c-.01.02-.02.02-.04.02s-.04-.01-.04-.04v-.02zM77.4 14.38c.23 0 .44.12.44.36 0 .28-.22.48-.4.6a.9.9 0 0 1-.47.13c-.22 0-.43-.11-.43-.35 0-.29.22-.49.4-.6a.9.9 0 0 1 .47-.14zM77.4 6.63c.23 0 .44.11.44.35 0 .29-.22.49-.4.6a.9.9 0 0 1-.47.14c-.22 0-.43-.12-.43-.36 0-.28.22-.48.4-.6a.9.9 0 0 1 .47-.13z"
        fill="currentColor" />
    <rect x="-.07" y="-.31" width=".13" height="2.5" ry=".04" fill="currentColor" transform="translate(74.1 14.93)" />
    <rect x="-.07" y="-1.2" width=".13" height="3.01" ry=".04" fill="currentColor" transform="translate(75.28 4.67)" />
    <path
        d="M74.64 11.34c-.07 0-.15.02-.15.09 0 .04.07.05.07.09 0 .06-.05.11-.12.11s-.1-.05-.1-.11c0-.15.14-.24.3-.24.2 0 .39.07.39.25 0 .09-.02.17-.1.2-.02.01-.03.04-.03.06s0 .05.03.06c.1.04.13.12.13.22 0 .2-.18.3-.4.3-.19 0-.36-.1-.36-.25a.13.13 0 0 1 .26 0c0 .04-.08.05-.08.1 0 .07.09.1.17.1.1 0 .13-.13.13-.25v-.09c0-.08-.01-.15-.1-.15h-.16c-.03 0-.04-.02-.04-.04s.01-.04.04-.04h.16c.09 0 .1-.07.1-.16v-.06c0-.11-.04-.19-.14-.19zM74.91 6.13c.22 0 .44.11.44.35 0 .29-.22.49-.41.6a.9.9 0 0 1-.47.14c-.22 0-.43-.12-.43-.36 0-.28.22-.48.41-.6a.9.9 0 0 1 .46-.13z"
        fill="currentColor" />
    <rect x="-.07" y="-.81" width=".13" height="2.67" ry=".04" fill="currentColor" transform="translate(71.6 14.93)" />
    <rect x="-.07" y="-1.53" width=".13" height="2.84" ry=".04" fill="currentColor" transform="translate(72.78 4.67)" />
    <path
        d="M72.41 13.38c.22 0 .43.12.43.36 0 .28-.22.48-.4.6a.9.9 0 0 1-.47.13c-.22 0-.43-.11-.43-.35 0-.29.22-.49.4-.6a.9.9 0 0 1 .47-.14zM72.16 1.5c.06-.04.11-.07.15-.12l.06-.11.02-.02c.02 0 .04.02.04.04v.48h.17c.03 0 .04.02.04.04s-.01.04-.04.04h-.17c0 .1.07.2.17.2.03 0 .04.03.04.04s-.01.03-.04.03c-.1 0-.2-.03-.31-.03s-.22.03-.33.03c-.02 0-.03-.01-.03-.03s.01-.03.03-.03c.1 0 .18-.1.18-.21h-.33c-.07 0-.09-.04-.09-.06v-.02c.18-.2.28-.44.28-.7 0-.03.02-.05.04-.05l.17.03a.7.7 0 0 0 .17-.03h.02c.02 0 .03.01.03.03v.02l-.62.7h.33v-.21c0-.03 0-.05.02-.06zM72.41 5.63c.22 0 .43.11.43.35 0 .29-.22.49-.4.6a.9.9 0 0 1-.47.14c-.22 0-.43-.12-.43-.36 0-.28.22-.48.4-.6a.9.9 0 0 1 .47-.13zM79.91 14.88c.22 0 .44.12.44.36 0 .28-.22.48-.41.6a.9.9 0 0 1-.47.13c-.22 0-.43-.11-.43-.35 0-.29.22-.49.4-.6a.9.9 0 0 1 .47-.14zM79.58 1.84h.29c0 .11.07.22.18.22.02 0 .03.02.03.03s0 .03-.03.03c-.1 0-.21-.03-.32-.03s-.21.03-.32.03c-.02 0-.03-.01-.03-.03s0-.03.03-.03c.1 0 .17-.1.17-.22zm-.28-.27.28-.55h.05c.03.01.06.03.1.03s.07-.02.1-.03c.02 0 .04.02.04.05v.77h-.29v-.48c0-.03-.02-.05-.04-.05-.01 0-.02 0-.02.02l-.15.28-.03.02c-.02 0-.04-.02-.04-.04v-.02zM79.91 7.13c.22 0 .44.11.44.35 0 .29-.22.49-.41.6a.9.9 0 0 1-.47.14c-.22 0-.43-.12-.43-.36 0-.28.22-.48.4-.6a.9.9 0 0 1 .47-.13z"
        fill="currentColor" />
    <rect x="-.07" y="-2.8" width=".13" height="2.62" ry=".04" fill="currentColor" transform="translate(77.78 14.93)" />
    <rect x="-.07" y="-.19" width=".13" height="2.5" ry=".04" fill="currentColor" transform="translate(77.78 4.67)" />
    <path
        d="M27.33 6.63c.22 0 .44.11.44.35 0 .29-.22.49-.41.6a.9.9 0 0 1-.47.14c-.22 0-.43-.12-.43-.36 0-.28.22-.48.41-.6a.9.9 0 0 1 .46-.13zM29.84 13.88c.22 0 .43.12.43.36 0 .28-.22.48-.4.6a.9.9 0 0 1-.47.13c-.22 0-.43-.11-.43-.35 0-.29.22-.49.4-.6a.9.9 0 0 1 .47-.14zM29.84 6.13c.22 0 .43.11.43.35 0 .29-.22.49-.4.6a.9.9 0 0 1-.47.14c-.22 0-.43-.12-.43-.36 0-.28.22-.48.4-.6a.9.9 0 0 1 .47-.13z"
        fill="currentColor" />
    <rect x="-.07" y=".19" width=".13" height="2.62" ry=".04" fill="currentColor" transform="translate(26.53 14.93)" />
    <rect x="-.07" y="-1.01" width=".13" height="3.32" ry=".04" fill="currentColor" transform="translate(27.7 4.67)" />
    <path
        d="M27 12.1h.3c0 .1.06.21.17.21.02 0 .03.02.03.04s0 .03-.03.03c-.1 0-.21-.03-.32-.03s-.21.03-.32.03c-.02 0-.03-.02-.03-.03s0-.04.03-.04c.1 0 .18-.1.18-.22zm-.28-.27.29-.55c0-.02.02 0 .04 0 .03.01.06.03.1.03s.07-.02.1-.03c.02 0 .04.02.04.04v.77h-.28v-.47c0-.03-.03-.05-.05-.05-.01 0-.02 0-.02.02l-.15.27c0 .02-.02.02-.03.02-.02 0-.04-.01-.04-.03v-.02zM27.33 14.38c.22 0 .44.12.44.36 0 .28-.22.48-.41.6a.9.9 0 0 1-.47.13c-.22 0-.43-.11-.43-.35 0-.29.22-.49.41-.6a.9.9 0 0 1 .46-.14zM29.57 11.34c-.08 0-.16.02-.16.09 0 .04.07.05.07.09 0 .06-.05.11-.11.11s-.11-.05-.11-.11c0-.15.15-.24.3-.24.21 0 .39.07.39.25 0 .09-.01.17-.1.2-.02.01-.03.04-.03.06s.01.05.04.06c.08.04.13.12.13.22 0 .2-.19.3-.41.3-.18 0-.35-.1-.35-.25a.13.13 0 0 1 .25 0c0 .04-.08.05-.08.1 0 .07.1.1.18.1.1 0 .12-.13.12-.25v-.09c0-.08 0-.15-.1-.15h-.16c-.02 0-.04-.02-.04-.04s.02-.04.04-.04h.17c.08 0 .1-.07.1-.16v-.06c0-.11-.04-.19-.14-.19z"
        fill="currentColor" />
    <rect x="-.07" y="-2.18" width=".13" height="2.5" ry=".04" fill="currentColor" transform="translate(25.19 14.93)" />
    <rect x="-.07" y="-.19" width=".13" height="3" ry=".04" fill="currentColor" transform="translate(25.19 4.67)" />
    <path
        d="M24.82 14.88c.22 0 .43.12.43.36 0 .28-.22.48-.4.6a.9.9 0 0 1-.47.13c-.22 0-.43-.11-.43-.35 0-.29.22-.49.4-.6a.9.9 0 0 1 .47-.14zM24.5 1.84h.28c0 .11.07.22.18.22.02 0 .03.02.03.03s-.01.03-.03.03l-.33-.03c-.1 0-.2.03-.31.03-.03 0-.04-.01-.04-.03s.01-.03.04-.03c.1 0 .17-.1.17-.22zm-.3-.27.3-.55h.04c.03.01.06.03.1.03s.06-.02.1-.03c.02 0 .04.02.04.05v.77h-.29v-.48c0-.03-.02-.05-.04-.05-.01 0-.02 0-.03.02l-.14.28-.03.02c-.02 0-.05-.02-.05-.04v-.02zM24.82 7.13c.22 0 .43.11.43.35 0 .29-.22.49-.4.6a.9.9 0 0 1-.47.14c-.22 0-.43-.12-.43-.36 0-.28.22-.48.4-.6a.9.9 0 0 1 .47-.13z"
        fill="currentColor" />
    <rect x="-.07" y="-1.8" width=".13" height="2.62" ry=".04" fill="currentColor" transform="translate(35.21 4.67)" />
    <path
        d="M34.52 12.1h.28c0 .1.07.21.18.21.02 0 .03.02.03.04s0 .03-.03.03c-.1 0-.21-.03-.32-.03s-.21.03-.32.03c-.02 0-.03-.02-.03-.03s.01-.04.03-.04c.1 0 .18-.1.18-.22zm-.29-.27.29-.55c0-.02.03 0 .04 0l.1.03.1-.03c.03 0 .04.02.04.04v.77h-.28v-.47c0-.03-.03-.05-.05-.05 0 0-.02 0-.02.02l-.15.27c0 .02-.02.02-.03.02-.02 0-.04-.01-.04-.03v-.02zM34.85 12.88c.22 0 .43.12.43.36 0 .28-.22.48-.41.6a.9.9 0 0 1-.46.13c-.22 0-.44-.11-.44-.35 0-.29.22-.49.41-.6a.9.9 0 0 1 .47-.14zM34.52 1.84h.28c0 .11.07.22.18.22.02 0 .03.02.03.03s0 .03-.03.03c-.1 0-.21-.03-.32-.03s-.21.03-.32.03c-.02 0-.03-.01-.03-.03s.01-.03.03-.03c.1 0 .18-.1.18-.22zm-.29-.27.29-.55h.04l.1.03.1-.03c.03 0 .04.02.04.05v.77h-.28v-.48c0-.03-.03-.05-.05-.05 0 0-.02 0-.02.02l-.15.28-.03.02c-.02 0-.04-.02-.04-.04v-.02zM34.85 5.13c.22 0 .43.11.43.35 0 .29-.22.49-.41.6a.9.9 0 0 1-.46.14c-.22 0-.44-.12-.44-.36 0-.28.22-.48.41-.6a.9.9 0 0 1 .47-.13zM51.9.03a1.73 1.73 0 0 0 .6 0c.03 0 .04.01.04.03v.01a.8.8 0 0 1-.57.22c-.02 0-.04.02-.04.05V.5c.06-.06.14-.08.23-.08.26 0 .41.11.41.35 0 .22-.2.36-.44.36-.18 0-.36-.1-.36-.27a.13.13 0 0 1 .26 0c0 .05-.08.06-.08.11 0 .08.1.1.18.1.12 0 .16-.15.16-.3 0-.13-.02-.27-.13-.27-.1 0-.19.01-.24.08l-.03.02a.04.04 0 0 1-.04-.04V.07c0-.02.01-.04.04-.04z"
        fill="currentColor" />
    <rect x="-.07" y="-.81" width=".13" height="3.09" ry=".04" fill="currentColor" transform="translate(31.54 14.93)" />
    <rect x="-.07" y="-1.54" width=".13" height="2.85" ry=".04" fill="currentColor" transform="translate(32.7 4.67)" />
    <path
        d="M32.34 13.38c.22 0 .43.12.43.36 0 .28-.22.48-.4.6a.9.9 0 0 1-.47.13c-.22 0-.43-.11-.43-.35 0-.29.22-.49.4-.6a.9.9 0 0 1 .47-.14zM32.1 1.5c.05-.04.1-.07.14-.12.03-.03.04-.07.06-.11 0-.01.01-.02.03-.02.01 0 .03.02.03.04v.48h.17c.03 0 .04.02.04.04s0 .04-.04.04h-.17c0 .1.07.2.18.2.02 0 .03.03.03.04s-.01.03-.03.03c-.11 0-.21-.03-.32-.03s-.22.03-.32.03c-.03 0-.03-.01-.03-.03s0-.03.03-.03c.1 0 .17-.1.18-.21h-.34c-.06 0-.08-.04-.08-.06v-.02c.17-.2.27-.44.27-.7 0-.03.02-.05.04-.05l.18.03c.06 0 .11-.01.16-.03h.02c.02 0 .04.01.04.03v.02l-.63.7h.34v-.21c0-.03 0-.05.02-.06zM32.34 5.63c.22 0 .43.11.43.35 0 .29-.22.49-.4.6a.9.9 0 0 1-.47.14c-.22 0-.43-.12-.43-.36 0-.28.22-.48.4-.6a.9.9 0 0 1 .47-.13z"
        fill="currentColor" />
    <rect x="-.07" y="-.31" width=".13" height="2.85" ry=".04" fill="currentColor" transform="translate(29.03 14.93)" />
    <rect x="-.07" y="-1.27" width=".13" height="3.09" ry=".04" fill="currentColor" transform="translate(30.2 4.67)" />
    <path
        d="M16.81 11.28a1.73 1.73 0 0 0 .6 0h.02c.02 0 .04.01.04.03v.01a.8.8 0 0 1-.58.22c-.02 0-.04.03-.04.05v.16c.06-.06.15-.08.23-.08.26 0 .42.11.42.36 0 .2-.22.35-.44.35-.19 0-.36-.1-.36-.26a.13.13 0 0 1 .25 0c0 .04-.08.05-.08.1 0 .08.1.1.19.1.12 0 .15-.15.15-.3 0-.12-.02-.27-.13-.27-.09 0-.18.01-.24.08 0 .02-.02.02-.03.02a.04.04 0 0 1-.04-.04v-.49c0-.02.02-.04.04-.04z"
        fill="currentColor" />
    <rect x="-.07" y="-1.2" width=".13" height="3.01" ry=".04" fill="currentColor" transform="translate(17.68 14.93)" />
    <rect x="-.07" width=".13" height="4.32" ry=".04" fill="currentColor" transform="translate(17.68 4.67)" />
    <path
        d="M13.7 15.18c0 .04-.03.07-.07.07s-.08-.03-.08-.07v-.58l-.33.12v.63c0 .04-.04.08-.08.08s-.07-.04-.07-.08v-.58l-.13.05h-.02a.08.08 0 0 1-.08-.08v-.24c0-.03.02-.06.05-.07l.18-.07v-.64l-.13.05h-.02a.08.08 0 0 1-.08-.08v-.24c0-.03.02-.06.05-.07l.18-.07v-.63c0-.04.03-.08.07-.08s.08.04.08.08v.58l.33-.12v-.64c0-.04.04-.07.08-.07s.07.03.07.07v.58l.13-.04h.03c.04 0 .08.03.08.07v.24c0 .03-.02.07-.06.08l-.18.06v.64l.13-.04h.03c.04 0 .08.03.08.07v.24c0 .04-.02.06-.06.08l-.18.06v.64zm-.48-1.51v.64l.33-.12v-.64zM11.56 14.43c0-.11.1-.2.2-.2s.21.09.21.2-.09.2-.2.2-.2-.09-.2-.2zm0-1c0-.11.1-.2.2-.2s.21.09.21.2-.09.2-.2.2-.2-.09-.2-.2zm-1.3-.55c.7 0 1.18.35 1.18 1 0 1.05-1.06 1.66-2.07 2.08a.05.05 0 0 1-.03.02.05.05 0 0 1-.06-.05c0-.01 0-.03.02-.04.8-.47 1.65-1.06 1.65-1.97 0-.48-.25-.94-.69-.94-.3 0-.51.22-.61.5a.32.32 0 0 1 .13-.03c.22 0 .4.18.4.4 0 .23-.17.43-.4.43-.24 0-.44-.2-.44-.43 0-.53.4-.97.92-.97zM17.3 16.38c.23 0 .44.12.44.36 0 .28-.22.48-.4.6a.9.9 0 0 1-.47.13c-.22 0-.43-.11-.43-.35 0-.29.22-.49.4-.6a.9.9 0 0 1 .47-.14zM13.7 3.92c0 .04-.03.08-.07.08s-.08-.04-.08-.08v-.58l-.33.12v.64c0 .04-.04.07-.08.07s-.07-.03-.07-.07v-.58l-.13.04h-.02a.08.08 0 0 1-.08-.07v-.24c0-.03.02-.07.05-.08l.18-.06v-.64l-.13.04h-.02a.08.08 0 0 1-.08-.07V2.2c0-.04.02-.06.05-.08l.18-.06v-.64c0-.04.03-.07.07-.07s.08.03.08.07V2l.33-.12v-.63c0-.04.04-.08.08-.08s.07.04.07.08v.58l.13-.05h.03c.04 0 .08.03.08.08v.24c0 .03-.02.06-.06.07l-.18.07v.64l.13-.05h.03c.04 0 .08.03.08.08v.24c0 .03-.02.06-.06.07l-.18.07v.63zm-.48-1.5v.63l.33-.12V2.3zM10.4 8.21h-.02a.78.78 0 0 1-.78-.79c0-.23.2-.4.44-.4.22 0 .38.18.38.4 0 .21-.17.38-.38.38-.04 0-.08 0-.12-.02.1.16.27.26.47.26h.01zm.78-1.73c.27-.1.45-.38.45-.65a.76.76 0 0 0-.69-.76c.1.46.18.92.24 1.41zm-1.55-.92c0 .54.52.99 1.06.99l.33-.03c-.06-.5-.15-.98-.26-1.45-.31.03-.5.24-.5.47 0 .18.1.37.33.5l.03.06a.1.1 0 0 1-.09.08h-.03a.84.84 0 0 1-.47-.74c0-.36.23-.7.64-.8l-.19-.7c-.42.5-.85.98-.85 1.62zm1.05 1.16c-.76 0-1.34-.69-1.34-1.5 0-.7.53-1.22 1-1.76a4.47 4.47 0 0 1-.21-1.38c0-.46.22-.9.6-1.17a.06.06 0 0 1 .07 0c.29.33.54.98.54 1.43 0 .57-.35 1.02-.72 1.46l.22.82h.05a1.04 1.04 0 0 1 .3 2.03 4.92 4.92 0 0 1 .02.65c-.03.48-.35.9-.81.91v-.17c.38 0 .62-.37.64-.76a4.04 4.04 0 0 0 0-.6c-.12.03-.24.04-.36.04zm.37-4.71c0-.22-.02-.32-.08-.52-.4.2-.65.6-.65 1.04 0 .3.07.53.14.77.32-.38.59-.79.59-1.3zM16.98 1.84h.29c0 .11.07.22.17.22.03 0 .03.02.03.03s0 .03-.03.03c-.1 0-.21-.03-.32-.03s-.2.03-.32.03c-.02 0-.03-.01-.03-.03s.01-.03.03-.03c.11 0 .18-.1.18-.22zm-.28-.27.28-.55h.05c.03.01.06.03.1.03s.06-.02.1-.03c.02 0 .04.02.04.05v.77h-.3v-.48c0-.03-.02-.05-.03-.05-.02 0-.02 0-.03.02l-.14.28-.04.02c-.02 0-.04-.02-.04-.04v-.02zM17.3 8.63c.23 0 .44.11.44.35 0 .29-.22.49-.4.6a.9.9 0 0 1-.47.14c-.22 0-.43-.12-.43-.36 0-.28.22-.48.4-.6a.9.9 0 0 1 .47-.13z"
        fill="currentColor" />
    <rect y="-7.18" width=".16" height="14.36" ry=".05" fill="currentColor" transform="translate(8.48 9.8)" />
    <path
        d="M7.38 14.84c0-1.17.46-2.32.46-3.44 0-.6-.13-1.14-.54-1.57 0-.01-.02-.01-.02-.03l.02-.03c.41-.43.54-.98.54-1.57 0-1.1-.46-2.27-.46-3.44 0-.82.19-1.58.75-2.18.06-.06.16.04.1.1-.42.45-.57 1-.57 1.58 0 1.1.45 2.21.45 3.36 0 .8-.17 1.59-.72 2.18.55.6.72 1.38.72 2.18 0 1.15-.45 2.27-.45 3.36 0 .59.15 1.13.56 1.58.07.06-.03.16-.1.1a3.05 3.05 0 0 1-.74-2.18z"
        fill="currentColor" />
    <rect x="-.07" y="-1.85" width=".13" height="2.67" ry=".04" fill="currentColor"
        transform="translate(22.68 14.93)" />
    <rect x="-.07" y="-.13" width=".13" height="3.44" ry=".04" fill="currentColor" transform="translate(22.68 4.67)" />
    <path
        d="M22.32 15.38c.22 0 .43.12.43.36 0 .28-.22.48-.41.6a.9.9 0 0 1-.46.13c-.22 0-.44-.11-.44-.35 0-.29.22-.49.41-.6a.9.9 0 0 1 .47-.14zM22.04 1.09c-.07 0-.15.01-.15.08 0 .04.07.05.07.1s-.05.1-.11.1-.12-.05-.12-.1c0-.16.15-.25.31-.25.2 0 .39.07.39.25 0 .1-.02.17-.1.2-.02.02-.03.04-.03.07s.01.04.04.06c.08.04.12.11.12.21 0 .2-.18.31-.4.31-.18 0-.36-.1-.36-.26a.13.13 0 0 1 .26 0c0 .05-.08.06-.08.1 0 .08.1.1.18.1.1 0 .12-.13.12-.25v-.08c0-.09-.01-.15-.1-.15h-.16c-.02 0-.04-.02-.04-.04s.02-.04.04-.04h.16c.1 0 .1-.07.1-.16v-.07c0-.11-.04-.18-.14-.18zM22.32 7.63c.22 0 .43.11.43.35 0 .29-.22.49-.41.6a.9.9 0 0 1-.46.14c-.22 0-.44-.12-.44-.36 0-.28.22-.48.41-.6a.9.9 0 0 1 .47-.13z"
        fill="currentColor" />
    <rect x="-.07" y="-1.53" width=".13" height="2.84" ry=".04" fill="currentColor"
        transform="translate(20.18 14.93)" />
    <rect x="-.07" y="-.06" width=".13" height="3.88" ry=".04" fill="currentColor" transform="translate(20.18 4.67)" />
    <path
        d="M19.81 15.88c.22 0 .43.12.43.36 0 .28-.22.48-.4.6a.9.9 0 0 1-.47.13c-.22 0-.43-.11-.43-.35 0-.29.22-.49.4-.6a.9.9 0 0 1 .47-.14zM19.81 8.13c.22 0 .43.11.43.35 0 .29-.22.49-.4.6a.9.9 0 0 1-.47.14c-.22 0-.43-.12-.43-.36 0-.28.22-.48.4-.6a.9.9 0 0 1 .47-.13z"
        fill="currentColor" />
    <rect x="-.07" y="-3.31" width=".13" height="3.51" ry=".04" fill="currentColor"
        transform="translate(44.07 14.93)" />
    <rect x="-.07" y="-.81" width=".13" height="3.01" ry=".04" fill="currentColor" transform="translate(44.07 4.67)" />
    <path
        d="M44.54 10.1h.29c0 .11.07.22.18.22.02 0 .03.02.03.03s-.01.03-.03.03c-.11 0-.22-.03-.32-.03s-.21.03-.32.03c-.02 0-.04-.01-.04-.03s.02-.03.04-.03c.1 0 .17-.1.17-.22zm-.28-.27.28-.55h.05c.03.02.06.03.1.03s.06-.01.1-.03c.02 0 .04.02.04.05v.77h-.29v-.47c0-.04-.02-.05-.04-.05l-.02.01-.15.28c0 .02-.02.02-.03.02-.02 0-.04-.02-.04-.04v-.02zM44.87 10.88c.22 0 .43.12.43.36 0 .28-.22.48-.4.6a.9.9 0 0 1-.47.13c-.22 0-.43-.11-.43-.35 0-.29.22-.49.4-.6a.9.9 0 0 1 .47-.14zM44.87 3.13c.22 0 .43.11.43.35 0 .29-.22.49-.4.6a.9.9 0 0 1-.47.14c-.22 0-.43-.12-.43-.36 0-.28.22-.48.4-.6a.9.9 0 0 1 .47-.13z"
        fill="currentColor" />
    <rect x="-.07" y="-2.81" width=".13" height="3.21" ry=".04" fill="currentColor"
        transform="translate(41.56 14.93)" />
    <rect x="-.07" y="-.31" width=".13" height="2.78" ry=".04" fill="currentColor" transform="translate(41.56 4.67)" />
    <path
        d="M42.37 11.38c.22 0 .43.12.43.36 0 .28-.22.48-.4.6a.9.9 0 0 1-.47.13c-.22 0-.43-.11-.43-.35 0-.29.22-.49.4-.6a.9.9 0 0 1 .47-.14zM42.04 1.84h.29c0 .11.07.22.17.22.03 0 .03.02.03.03s0 .03-.03.03c-.1 0-.21-.03-.32-.03s-.2.03-.32.03c-.02 0-.03-.01-.03-.03s.01-.03.03-.03c.11 0 .18-.1.18-.22zm-.28-.27.28-.55h.05c.03.01.06.03.1.03s.06-.02.1-.03c.02 0 .04.02.04.05v.77h-.3v-.48c0-.03-.01-.05-.03-.05-.02 0-.02 0-.03.02l-.14.28-.04.02c-.02 0-.04-.02-.04-.04v-.02zM42.37 3.63c.22 0 .43.11.43.35 0 .29-.22.49-.4.6a.9.9 0 0 1-.47.14c-.22 0-.43-.12-.43-.36 0-.28.22-.48.4-.6a.9.9 0 0 1 .47-.13z"
        fill="currentColor" />
    <rect x="-.07" y="-2.31" width=".13" height="2.92" ry=".04" fill="currentColor"
        transform="translate(39.06 14.93)" />
    <path
        d="M52.39 1.63c.22 0 .43.11.43.35 0 .29-.22.49-.41.6a.9.9 0 0 1-.46.14c-.22 0-.44-.12-.44-.36 0-.28.22-.48.41-.6a.9.9 0 0 1 .47-.13z"
        fill="currentColor" />
    <rect x="-.07" y="-4.31" width=".13" height="4.31" ry=".04" fill="currentColor"
        transform="translate(49.07 14.93)" />
    <rect x="-.07" y="-1.81" width=".13" height="2.88" ry=".04" fill="currentColor" transform="translate(49.07 4.67)" />
    <path
        d="M49.88 9.88c.22 0 .43.12.43.36 0 .28-.22.48-.4.6a.9.9 0 0 1-.47.13c-.22 0-.43-.11-.43-.35 0-.29.22-.49.4-.6a.9.9 0 0 1 .47-.14zM49.64 1c.05-.03.1-.06.14-.11l.06-.12.02-.01c.02 0 .04.01.04.04v.47h.17c.03 0 .04.02.04.04s-.01.04-.04.04h-.17c0 .11.07.21.18.21.02 0 .03.02.03.04s-.01.03-.03.03c-.11 0-.22-.03-.32-.03s-.22.03-.32.03c-.03 0-.04-.02-.04-.03s.01-.04.04-.04c.1 0 .17-.1.17-.2h-.33c-.06 0-.08-.05-.08-.07v-.02c.17-.2.27-.44.27-.7 0-.02.02-.05.04-.05.06.02.12.04.17.04l.17-.03h.02c.02 0 .03.01.03.03v.01l-.62.7h.33v-.2c0-.03 0-.05.03-.07zM49.88 2.13c.22 0 .43.11.43.35 0 .29-.22.49-.4.6a.9.9 0 0 1-.47.14c-.22 0-.43-.12-.43-.36 0-.28.22-.48.4-.6a.9.9 0 0 1 .47-.13z"
        fill="currentColor" />
    <rect x="-.07" y="-3.81" width=".13" height="3.81" ry=".04" fill="currentColor"
        transform="translate(46.57 14.93)" />
    <rect x="-.07" y="-1.31" width=".13" height="2.5" ry=".04" fill="currentColor" transform="translate(46.57 4.67)" />
    <path
        d="M47.1 8.85c-.07 0-.15.01-.15.08 0 .04.07.05.07.1s-.05.1-.11.1-.12-.05-.12-.1c0-.16.15-.25.32-.25.2 0 .38.07.38.25 0 .1-.02.17-.1.2-.02.02-.03.04-.03.07s.01.05.04.06c.08.04.13.11.13.21 0 .2-.19.31-.41.31-.18 0-.36-.1-.36-.26a.13.13 0 0 1 .26 0c0 .05-.08.06-.08.1 0 .08.1.1.18.1.1 0 .12-.13.12-.25V9.5c0-.09 0-.15-.1-.15h-.16c-.02 0-.04-.02-.04-.04s.02-.04.04-.04h.16c.1 0 .1-.07.1-.16v-.07c0-.1-.04-.18-.13-.18zM47.38 10.38c.22 0 .43.12.43.36 0 .28-.22.48-.4.6a.9.9 0 0 1-.47.13c-.22 0-.44-.11-.44-.35 0-.29.22-.49.41-.6a.9.9 0 0 1 .47-.14zM47.38 2.63c.22 0 .43.11.43.35 0 .29-.22.49-.4.6a.9.9 0 0 1-.47.14c-.22 0-.44-.12-.44-.36 0-.28.22-.48.41-.6a.9.9 0 0 1 .47-.13z"
        fill="currentColor" />
    <rect x="-.07" y="-1.81" width=".13" height="2.62" ry=".04" fill="currentColor"
        transform="translate(36.55 14.93)" />
    <rect x="-.07" y=".69" width=".13" height="2.31" ry=".04" fill="currentColor" transform="translate(36.55 4.67)" />
    <path
        d="M37.11 11.26c.06-.04.11-.07.15-.12l.06-.11.02-.02c.02 0 .04.02.04.04v.48h.17c.03 0 .04.02.04.04s-.01.04-.04.04h-.17c0 .11.07.2.17.2.03 0 .04.03.04.04s-.01.03-.04.03c-.1 0-.2-.03-.31-.03s-.22.03-.33.03c-.02 0-.03-.01-.03-.03s.01-.03.03-.03c.1 0 .18-.1.18-.21h-.33c-.07 0-.09-.04-.09-.06v-.02c.18-.2.28-.44.28-.7 0-.03.02-.05.04-.05l.17.03a.7.7 0 0 0 .17-.03h.02c.02 0 .03.02.03.03v.02l-.62.7h.33v-.21c0-.02 0-.05.02-.06zM37.36 12.38c.22 0 .43.12.43.36 0 .28-.22.48-.4.6a.9.9 0 0 1-.47.13c-.22 0-.43-.11-.43-.35 0-.29.22-.49.4-.6a.9.9 0 0 1 .47-.14zM37.36 4.63c.22 0 .43.11.43.35 0 .29-.22.49-.4.6a.9.9 0 0 1-.47.14c-.22 0-.43-.12-.43-.36 0-.28.22-.48.4-.6a.9.9 0 0 1 .47-.13z"
        fill="currentColor" />
    <rect x="-.07" y="-1.31" width=".13" height="3.32" ry=".04" fill="currentColor"
        transform="translate(34.04 14.93)" />
    <path
        d="M39.86 11.88c.22 0 .44.12.44.36 0 .28-.22.48-.41.6a.9.9 0 0 1-.47.13c-.22 0-.43-.11-.43-.35 0-.29.22-.49.41-.6a.9.9 0 0 1 .46-.14zM39.6 1.09c-.08 0-.16.01-.16.08 0 .04.07.05.07.1s-.05.1-.12.1-.1-.05-.1-.1c0-.16.14-.25.3-.25.2 0 .39.07.39.25 0 .1-.02.17-.1.2-.02.02-.03.04-.03.07s0 .04.03.06c.1.04.13.11.13.21 0 .2-.18.31-.4.31-.19 0-.36-.1-.36-.26a.13.13 0 0 1 .26 0c0 .05-.08.06-.08.1 0 .08.09.1.17.1.1 0 .13-.13.13-.25v-.08c0-.09-.01-.15-.1-.15h-.16c-.03 0-.04-.02-.04-.04s.01-.04.04-.04h.16c.09 0 .1-.07.1-.16v-.07c0-.11-.04-.18-.14-.18zM39.86 4.13c.22 0 .44.11.44.35 0 .29-.22.49-.41.6a.9.9 0 0 1-.47.14c-.22 0-.43-.12-.43-.36 0-.28.22-.48.41-.6a.9.9 0 0 1 .46-.13z"
        fill="currentColor" />
    <rect x="-.07" y=".19" width=".13" height="2.54" ry=".04" fill="currentColor" transform="translate(39.06 4.67)" />
</svg>